:SAMPLES-PER-SECOND 30
:FULLY-SPECIFIED
:DEGREES
173
root  3.412022178 35.52266519 3.763444405 -23.434021 -51.49000549 3.734008789
lowerback  1.467880011 1.815639973 -4.424990177
upperback  0.1141669974 2.328969955 -1.056750059
thorax  -0.8381659985 1.173400044 1.339329958
lowerneck  -13.81569958 7.186460018 -3.693720102
upperneck  21.22820091 8.528619766 10.23789978
head  8.202019691 4.808750153 4.958600044
lclavicle  0 -9.442270133e-015 7.951389973e-016
lhumerus  0.6854069829 -20.46920013 79.10420227
lradius  2.58934179e-031 -2.40086508e-031 137.1629944
lwrist  -1.412450015e-030 -0 1.328430057
lhand  -1.496451383e-031 -27.76390076 20.11240005
lfingers  90 7.125020027 -90
lthumb  89.89689403 5.08795885 91.16245106
rclavicle  0 -9.442270133e-015 7.951389973e-016
rhumerus  5.619319916 19.2989006 -80.48149872
rradius  -2.370422704e-031 2.61723905e-031 132.1670074
rwrist  7.062250077e-031 -1.765562519e-031 -12.21220016
rhand  -7.920061211e-032 -33.2840004 9.303460121
rfingers  -90 -7.125020027 -90
rthumb  -92.93752616 -24.25625642 -97.11982154
rfemur  4.432610035 9.201339722 9.249979973
rtibia  -0 0 68.74759674
rfoot  -0 -31.96649933 -6.689809799
rtoes  5.373923086 19.29304026 -105.8922705
lfemur  2.456049919 -3.800440073 -4.196630001
ltibia  -0 0 59.65710068
lfoot  1.003471337e-031 -28.39049911 4.660299778
ltoes  -4.250644065 -19.5611806 -102.515957
174
root  3.202333225 35.35977762 3.89371106 -24.0579834 -50.79899597 3.054016113
lowerback  1.166370034 1.795410037 -5.105380058
upperback  -0.1769849956 2.295609951 -1.154880047
thorax  -0.9897090197 1.165670037 1.622300029
lowerneck  -13.97719955 6.99545002 -3.931960106
upperneck  21.55599976 8.243229866 10.5557003
head  8.335570335 4.691669941 5.106229782
lclavicle  0 -9.442270133e-015 7.951389973e-016
lhumerus  0.9717199802 -20.72590065 79.53780365
lradius  2.570490366e-031 -2.421037652e-031 136.7149963
lwrist  -1.059337512e-030 -3.531125038e-031 0.8741700053
lhand  -1.496451383e-031 -27.76390076 20.11240005
lfingers  90 7.125020027 -90
lthumb  89.89689403 5.08795885 91.16245106
rclavicle  0 -9.442270133e-015 7.951389973e-016
rhumerus  5.745470047 18.41799927 -80.16519928
rradius  -2.380545726e-031 2.608034909e-031 132.3890076
rwrist  7.062250077e-031 -0 -12.65439987
rhand  -7.920061211e-032 -33.2840004 9.303460121
rfingers  -90 -7.125020027 -90
rthumb  -92.93752616 -24.25625642 -97.11982154
rfemur  6.333909988 8.992500305 9.836429596
rtibia  -0 0 68.90660095
rfoot  -0 -32.25350189 -6.667459965
rtoes  5.373923086 19.29304026 -105.8922705
lfemur  2.948019981 -3.929510117 -3.601259947
ltibia  -0 0 60.94340134
lfoot  5.022135108e-032 -28.49119949 5.110040188
ltoes  -4.250644065 -19.5611806 -102.515957
175
root  3.016333317 35.19577867 4.034911178 -23.79901123 -50.42900085 1.401977539
lowerback  0.9397479892 1.818040013 -4.941110134
upperback  -0.5465769768 2.329370022 -1.088700056
thorax  -1.24119997 1.19295001 1.597650051
lowerneck  -14.06459999 6.780419827 -4.250130177
upperneck  21.77490044 7.948009968 10.86800003
head  8.418120384 4.562660217 5.254489899
lclavicle  0 -9.442270133e-015 7.951389973e-016
lhumerus  1.212700009 -21.08679962 80.03160095
lradius  2.553866417e-031 -2.438567276e-031 136.322998
lwrist  -3.531125038e-031 -3.531125038e-031 0.4915669858
lhand  -1.496451383e-031 -27.76390076 20.11240005
lfingers  90 7.125020027 -90
lthumb  89.89689403 5.08795885 91.16245106
rclavicle  0 -9.442270133e-015 7.951389973e-016
rhumerus  5.852419853 17.34679985 -79.83730316
rradius  -2.400503025e-031 2.589677444e-031 132.8289948
rwrist  1.412450015e-030 -1.765562519e-031 -12.98620033
rhand  -7.920061211e-032 -33.2840004 9.303460121
rfingers  -90 -7.125020027 -90
rthumb  -92.93752616 -24.25625642 -97.11982154
rfemur  8.103569984 8.882710457 11.3263998
rtibia  -0 0 68.98590088
rfoot  -1.045379881e-031 -32.38589859 -6.934740067
rtoes  5.373923086 19.29304026 -105.8922705
lfemur  3.220920086 -3.926369905 -2.102440119
ltibia  -0 0 62.39220047
lfoot  5.028455297e-032 -28.62360001 5.049270153
ltoes  -4.250644065 -19.5611806 -102.515957
176
root  2.859644439 35.01133356 4.17506676 -23.21801758 -50.13000488 -0.4429931641
lowerback  0.6135860085 1.835950017 -4.37319994
upperback  -0.9229890108 2.366729975 -1.084540009
thorax  -1.424070001 1.215440035 1.288030028
lowerneck  -13.86629963 6.549310207 -4.518710136
upperneck  21.64509964 7.676569939 10.96319962
head  8.343870163 4.421569824 5.288310051
lclavicle  0 -9.442270133e-015 7.951389973e-016
lhumerus  1.578719974 -21.38150024 80.23699951
lradius  2.543159477e-031 -2.449731396e-031 136.0720062
lwrist  -1.059337512e-030 -3.531125038e-031 0.4378890097
lhand  -1.496451383e-031 -27.76390076 20.11240005
lfingers  90 7.125020027 -90
lthumb  89.89689403 5.08795885 91.16245106
rclavicle  0 -9.442270133e-015 7.951389973e-016
rhumerus  5.907239914 16.42889977 -79.78099823
rradius  -2.429816681e-031 2.562193383e-031 133.4810028
rwrist  0 -1.765562519e-031 -13.0177002
rhand  -7.920061211e-032 -33.2840004 9.303460121
rfingers  -90 -7.125020027 -90
rthumb  -92.93752616 -24.25625642 -97.11982154
rfemur  9.590519905 8.758370399 12.9552002
rtibia  -0 0 69.10780334
rfoot  -0 -32.56969833 -7.210579872
rtoes  5.373923086 19.29304026 -105.8922705
lfemur  3.297369957 -4.14470005 -0.4570780098
ltibia  -0 0 63.86800003
lfoot  5.035382676e-032 -28.7677002 3.920540094
ltoes  -4.250644065 -19.5611806 -102.515957
177
root  2.743688906 34.79200048 4.308711074 -22.2789917 -50.0059967 -2.512023926
lowerback  -0.1576460004 1.920940042 -3.265269995
upperback  -1.048910022 2.523910046 -1.152169943
thorax  -1.076709986 1.279289961 0.624728024
lowerneck  -13.64690018 6.295110226 -4.939199924
upperneck  21.05050087 7.416840076 11.1243
head  8.100549698 4.282320023 5.342999935
lclavicle  0 -9.442270133e-015 7.951389973e-016
lhumerus  2.491930008 -21.74760056 79.91490173
lradius  2.538108402e-031 -2.454964313e-031 135.9539948
lwrist  -7.062250077e-031 -0 0.8135979772
lhand  -1.496451383e-031 -27.76390076 20.11240005
lfingers  90 7.125020027 -90
lthumb  89.89689403 5.08795885 91.16245106
rclavicle  0 -9.442270133e-015 7.951389973e-016
rhumerus  6.095799923 15.6310997 -79.61000061
rradius  -2.462484134e-031 2.530813294e-031 134.2160034
rwrist  0 -0 -12.83829975
rhand  -7.920061211e-032 -33.2840004 9.303460121
rfingers  -90 -7.125020027 -90
rthumb  -92.93752616 -24.25625642 -97.11982154
rfemur  10.72179985 8.69618988 14.69680023
rtibia  -0 0 69.36019897
rfoot  -0 -32.70069885 -7.545380116
rtoes  5.373923086 19.29304026 -105.8922705
lfemur  3.255049944 -4.508009911 1.374590039
ltibia  -0 0 65.28849792
lfoot  7.560417304e-032 -28.8689003 1.771520019
ltoes  -4.250644065 -19.5611806 -102.515957
178
root  2.654133256 34.57733214 4.429022346 -20.92297363 -49.92700195 -4.773010254
lowerback  -0.7577250004 2.042959929 -2.015330076
upperback  -1.382169962 2.702029943 -1.142820001
thorax  -1.029649973 1.358219981 -0.04758790135
lowerneck  -13.29870033 6.05050993 -5.365499973
upperneck  20.43610001 7.191329956 11.17249966
head  7.832630157 4.144499779 5.357880116
lclavicle  0 -9.442270133e-015 7.951389973e-016
lhumerus  2.745520115 -22.00799942 80.09619904
lradius  2.532532182e-031 -2.460716315e-031 135.8240051
lwrist  -1.059337512e-030 -0 1.077209949
lhand  -1.496451383e-031 -27.76390076 20.11240005
lfingers  90 7.125020027 -90
lthumb  89.89689403 5.08795885 91.16245106
rclavicle  0 -9.442270133e-015 7.951389973e-016
rhumerus  5.845059872 15.03499985 -79.15910339
rradius  -2.492084164e-031 2.501671552e-031 134.8899994
rwrist  7.062250077e-031 -0 -12.78789997
rhand  -7.920061211e-032 -33.2840004 9.303460121
rfingers  -90 -7.125020027 -90
rthumb  -92.93752616 -24.25625642 -97.11982154
rfemur  11.47169971 8.628740311 16.58329964
rtibia  -0 0 69.69329834
rfoot  -0 -32.82569885 -8.066749573
rtoes  5.373923086 19.29304026 -105.8922705
lfemur  2.847359896 -4.820320129 3.366709948
ltibia  -0 0 66.67939758
lfoot  5.355749188e-032 -28.87770081 0.1015679985
ltoes  -4.250644065 -19.5611806 -102.515957
179
root  2.562466757 34.40977682 4.545622172 -19.59698486 -49.67399597 -6.62902832
lowerback  -1.618330002 2.167910099 -1.035400033
upperback  -1.596809983 2.877130032 -1.244629979
thorax  -0.7161489725 1.434149981 -0.6667439938
lowerneck  -13.25450039 5.787990093 -5.469099998
upperneck  19.75359917 6.956540108 10.84529972
head  7.633150101 3.993839979 5.208920002
lclavicle  0 -9.442270133e-015 7.951389973e-016
lhumerus  2.903899908 -21.85350037 80.50779724
lradius  2.519008213e-031 -2.474558882e-031 135.5099945
lwrist  -7.062250077e-031 -3.531125038e-031 1.145859957
lhand  -1.496451383e-031 -27.76390076 20.11240005
lfingers  90 7.125020027 -90
lthumb  89.89689403 5.08795885 91.16245106
rclavicle  0 -9.442270133e-015 7.951389973e-016
rhumerus  5.80053997 14.38080025 -78.70890045
rradius  -2.523409733e-031 2.470070314e-031 135.6119995
rwrist  7.062250077e-031 3.531125038e-031 -12.84980011
rhand  -7.920061211e-032 -33.2840004 9.303460121
rfingers  -90 -7.125020027 -90
rthumb  -92.93752616 -24.25625642 -97.11982154
rfemur  11.85480022 8.388719559 18.09379959
rtibia  -0 0 69.99440002
rfoot  -0 -33.15570068 -8.47881031
rtoes  5.373923086 19.29304026 -105.8922705
lfemur  2.079479933 -5.069369793 4.966450214
ltibia  -0 0 68.04299927
lfoot  5.321834695e-032 -28.79210091 -0.009880170226
ltoes  -4.250644065 -19.5611806 -102.515957
